<svg width="389" height="60" viewBox="0 0 389 60" fill="none" xmlns="http://www.w3.org/2000/svg">
<path fill-rule="evenodd" clip-rule="evenodd" d="M178.302 3.77731C179.193 7.6683 180.057 11.2706 180.791 13.2472C182.984 13.1406 184.407 12.5542 185.893 12.0123C187.724 11.3461 189.259 10.4844 190.598 9.48942C191.618 8.8276 192.191 9.12964 192.111 10.8442C191.802 12.4388 190.974 13.6602 189.712 14.5752C191.838 14.4909 193.794 14.6996 195.566 15.2237C198.315 16.041 200.602 17.609 202.352 20.0253C202.898 20.776 203.386 21.6066 203.82 22.5127C204.25 23.4099 204.626 24.396 204.944 25.4665L204.953 25.4887C206.157 29.966 206.296 34.1368 205.508 37.8901C204.684 41.8344 202.845 45.3078 200.172 48.1728C198.346 50.1316 196.153 51.8239 193.574 53.1831C191.135 54.4712 188.337 55.4662 185.173 56.1058C180.992 56.9497 177.214 57.1763 173.799 56.8698C170.357 56.5588 167.277 55.7105 164.529 54.4001C160.039 52.2637 156.445 48.3904 154.095 43.8465C151.655 39.116 150.545 33.6393 151.172 28.6334C151.427 26.5991 152.005 24.6669 152.931 22.8947C153.813 21.2157 155.013 19.6788 156.561 18.333C158.687 16.1343 162.313 14.7973 167.317 14.2554L163.66 12.7808C163.011 12.3632 163.298 12.1145 164.345 12.0079C169.041 11.8302 173.159 12.0479 176.252 12.9762C176.203 10.3778 175.097 7.77934 173.812 5.18091L177.178 3L178.302 3.77731ZM157.815 33.6837C157.712 33.1685 158.052 32.6666 158.576 32.5644C159.095 32.4622 159.601 32.7998 159.704 33.3195C160.29 36.2733 161.185 38.6852 162.331 40.6484C163.464 42.5895 164.847 44.0997 166.422 45.2856C166.847 45.601 166.928 46.2006 166.61 46.6226C166.292 47.0446 165.688 47.1245 165.263 46.8092C163.49 45.4766 161.937 43.7799 160.67 41.6079C159.413 39.458 158.441 36.8552 157.815 33.6837ZM188.145 16.6806C191.005 17.5157 193.091 19.2435 193.821 22.5127C193.874 24.1606 193.642 24.8135 192.943 23.8674C189.277 20.9803 185.822 19.55 182.697 20.3318C183.749 22.8236 185.84 24.7736 188.114 26.6258C184.022 26.6835 180.392 24.8713 177.084 21.7354C173.392 23.5343 168.011 23.0413 165.979 25.8485C164.793 27.292 164.565 26.5591 164.882 24.5914C165.746 21.4555 167.219 19.4301 169.372 18.635C165.836 18.7683 163.499 18.2886 162.165 17.3025C160.357 17.9021 158.956 18.7061 157.985 19.7233C157.962 19.7455 157.94 19.7677 157.913 19.7899C156.552 20.967 155.492 22.3173 154.713 23.8052C153.894 25.3643 153.388 27.0699 153.164 28.8689C152.587 33.4927 153.612 38.5564 155.881 42.9404C158.043 47.1201 161.319 50.6735 165.397 52.6101C167.935 53.8183 170.786 54.6045 173.987 54.8932C177.214 55.1819 180.8 54.9643 184.783 54.1603C187.742 53.5607 190.356 52.6323 192.643 51.4242C195.029 50.1627 197.048 48.6081 198.718 46.8225C201.144 44.2241 202.813 41.0704 203.561 37.4859C204.281 34.0302 204.152 30.1659 203.028 25.995C202.742 25.0401 202.401 24.1606 202.021 23.3522C201.636 22.5482 201.211 21.8242 200.741 21.1757C199.259 19.1325 197.325 17.8089 195.002 17.1204C193.002 16.5341 190.701 16.4053 188.145 16.6806Z" fill="#A3A6B5"/>
<path d="M8.85175 50.168V15.096H5.07575C4.64908 15.096 4.28641 14.968 3.98775 14.712C3.73175 14.4133 3.60375 14.0507 3.60375 13.624C3.60375 13.1973 3.73175 12.8347 3.98775 12.536C4.28641 12.2373 4.64908 12.088 5.07575 12.088H25.1717C34.4731 12.088 39.1237 16.2907 39.1237 24.696C39.1237 33.0587 34.4731 37.24 25.1717 37.24H12.3077V50.168C12.3077 50.5947 12.1371 50.936 11.7957 51.192C11.4544 51.4907 11.0491 51.64 10.5797 51.64C10.1104 51.64 9.70508 51.4907 9.36375 51.192C9.02241 50.936 8.85175 50.5947 8.85175 50.168ZM12.3077 15.096V34.296H25.1717C32.1691 34.296 35.6677 31.096 35.6677 24.696C35.6677 18.296 32.1691 15.096 25.1717 15.096H12.3077ZM49.8462 45.944C46.2622 42.1467 44.4702 37.3467 44.4702 31.544C44.4702 25.7413 46.2622 20.9413 49.8462 17.144C53.4729 13.3467 58.1236 11.448 63.7982 11.448C69.4729 11.448 74.1022 13.3467 77.6862 17.144C81.3129 20.9413 83.1262 25.7627 83.1262 31.608C83.1262 37.4107 81.3129 42.2107 77.6862 46.008C74.1022 49.7627 69.4729 51.64 63.7982 51.64C58.1236 51.64 53.4729 49.7413 49.8462 45.944ZM52.3422 19.32C49.3982 22.52 47.9262 26.5947 47.9262 31.544C47.9262 36.4933 49.3982 40.5893 52.3422 43.832C55.2862 47.032 59.1049 48.632 63.7982 48.632C68.4916 48.632 72.3102 47.032 75.2542 43.832C78.1982 40.5893 79.6702 36.4933 79.6702 31.544C79.6702 26.5947 78.1982 22.52 75.2542 19.32C72.3102 16.0773 68.4916 14.456 63.7982 14.456C59.1049 14.456 55.2862 16.0773 52.3422 19.32ZM93.2567 50.168V15.096H89.4167C88.9901 15.096 88.6274 14.968 88.3287 14.712C88.0727 14.4133 87.9447 14.0507 87.9447 13.624C87.9447 13.1973 88.0727 12.8347 88.3287 12.536C88.6274 12.2373 88.9901 12.088 89.4167 12.088H94.7287C95.4114 12.088 95.9661 12.344 96.3927 12.856L112.457 34.808L128.457 12.92C128.841 12.3653 129.374 12.088 130.057 12.088H135.497C135.923 12.088 136.265 12.2373 136.521 12.536C136.819 12.8347 136.969 13.1973 136.969 13.624C136.969 14.0507 136.819 14.4133 136.521 14.712C136.265 14.968 135.923 15.096 135.497 15.096H131.657V47.032C131.657 47.672 132.147 47.992 133.129 47.992H135.497C135.923 47.992 136.265 48.1413 136.521 48.44C136.819 48.7387 136.969 49.1013 136.969 49.528C136.969 49.9547 136.819 50.3173 136.521 50.616C136.265 50.872 135.923 51 135.497 51H133.129C129.843 51 128.201 49.6773 128.201 47.032V18.808L113.865 38.392C113.523 38.8613 113.054 39.096 112.457 39.096C111.859 39.096 111.39 38.8613 111.049 38.392L96.7127 18.808V50.168C96.7127 50.5947 96.5421 50.936 96.2007 51.192C95.8594 51.4907 95.4541 51.64 94.9847 51.64C94.5154 51.64 94.1101 51.4907 93.7687 51.192C93.4274 50.936 93.2567 50.5947 93.2567 50.168ZM222.99 15.096V47.992H232.782C237.732 47.992 241.593 46.5627 244.366 43.704C247.182 40.8027 248.59 36.792 248.59 31.672C248.59 26.5093 247.161 22.456 244.302 19.512C241.444 16.568 237.604 15.096 232.782 15.096H222.99ZM219.534 15.096H215.694C215.268 15.096 214.905 14.968 214.606 14.712C214.35 14.4133 214.222 14.0507 214.222 13.624C214.222 13.1973 214.35 12.8347 214.606 12.536C214.905 12.2373 215.268 12.088 215.694 12.088H232.782C238.585 12.088 243.236 13.8587 246.734 17.4C250.276 20.8987 252.046 25.6347 252.046 31.608C252.046 37.5813 250.318 42.3173 246.862 45.816C243.406 49.272 238.713 51 232.782 51H221.198C220.089 51 219.534 50.5093 219.534 49.528V15.096ZM264.029 45.944C260.445 42.1467 258.653 37.3467 258.653 31.544C258.653 25.7413 260.445 20.9413 264.029 17.144C267.655 13.3467 272.306 11.448 277.981 11.448C283.655 11.448 288.285 13.3467 291.869 17.144C295.495 20.9413 297.309 25.7627 297.309 31.608C297.309 37.4107 295.495 42.2107 291.869 46.008C288.285 49.7627 283.655 51.64 277.981 51.64C272.306 51.64 267.655 49.7413 264.029 45.944ZM266.525 19.32C263.581 22.52 262.109 26.5947 262.109 31.544C262.109 36.4933 263.581 40.5893 266.525 43.832C269.469 47.032 273.287 48.632 277.981 48.632C282.674 48.632 286.493 47.032 289.437 43.832C292.381 40.5893 293.853 36.4933 293.853 31.544C293.853 26.5947 292.381 22.52 289.437 19.32C286.493 16.0773 282.674 14.456 277.981 14.456C273.287 14.456 269.469 16.0773 266.525 19.32ZM310.895 15.096V33.144H323.695C330.735 33.144 334.255 30.1147 334.255 24.056C334.255 20.856 333.359 18.5733 331.567 17.208C329.818 15.8 327.194 15.096 323.695 15.096H310.895ZM310.895 36.088V50.168C310.895 50.5947 310.725 50.936 310.383 51.192C310.042 51.4907 309.637 51.64 309.167 51.64C308.698 51.64 308.293 51.4907 307.951 51.192C307.61 50.936 307.439 50.5947 307.439 50.168V15.096H303.599C303.173 15.096 302.81 14.968 302.511 14.712C302.255 14.4133 302.127 14.0507 302.127 13.624C302.127 13.1973 302.255 12.8347 302.511 12.536C302.81 12.2373 303.173 12.088 303.599 12.088H323.695C333.039 12.088 337.711 16.0773 337.711 24.056C337.711 29.816 335.173 33.528 330.095 35.192L338.351 49.464C338.437 49.6347 338.479 49.8267 338.479 50.04C338.479 50.6373 338.223 51.064 337.711 51.32C337.242 51.576 336.815 51.704 336.431 51.704C336.047 51.704 335.706 51.4693 335.407 51L326.639 35.96C325.53 36.0453 324.549 36.088 323.695 36.088H310.895ZM350.434 45.944C346.85 42.1467 345.058 37.3467 345.058 31.544C345.058 25.7413 346.85 20.9413 350.434 17.144C354.06 13.3467 358.711 11.448 364.386 11.448C370.06 11.448 374.69 13.3467 378.274 17.144C381.9 20.9413 383.714 25.7627 383.714 31.608C383.714 37.4107 381.9 42.2107 378.274 46.008C374.69 49.7627 370.06 51.64 364.386 51.64C358.711 51.64 354.06 49.7413 350.434 45.944ZM352.93 19.32C349.986 22.52 348.514 26.5947 348.514 31.544C348.514 36.4933 349.986 40.5893 352.93 43.832C355.874 47.032 359.692 48.632 364.386 48.632C369.079 48.632 372.898 47.032 375.842 43.832C378.786 40.5893 380.258 36.4933 380.258 31.544C380.258 26.5947 378.786 22.52 375.842 19.32C372.898 16.0773 369.079 14.456 364.386 14.456C359.692 14.456 355.874 16.0773 352.93 19.32Z" fill="#A3A6B5"/>
</svg>
